<svg width="128" height="128" viewBox="0 0 128 128" fill="none" xmlns="http://www.w3.org/2000/svg">
<g clip-path="url(#clip0_1_2)">
<rect width="128" height="128" rx="22" fill="url(#paint0_linear_1_2)"/>
<path d="M64.8506 63.9V65.45C64.8506 65.9833 64.8339 66.5833 64.8006 67.25C64.8006 67.9167 64.7506 68.5333 64.6506 69.1C64.5506 69.7 64.4339 70.2833 64.3006 70.85C64.1673 71.3833 64.0006 71.9167 63.8006 72.45C63.6673 72.8167 63.5506 73.15 63.4506 73.45C63.3506 73.7167 63.2173 73.9333 63.0506 74.1C63.0506 74.1333 63.0339 74.15 63.0006 74.15C63.0006 74.15 63.0006 74.1667 63.0006 74.2C62.7673 74.6333 62.5506 74.9833 62.3506 75.25C62.2173 75.4833 62.0506 75.7167 61.8506 75.95C61.6506 76.15 61.4506 76.35 61.2506 76.55C61.0839 76.7167 60.9006 76.8833 60.7006 77.05C60.5339 77.2167 60.3673 77.3833 60.2006 77.55C60.2006 77.55 60.1839 77.55 60.1506 77.55C60.1506 77.55 60.1506 77.5667 60.1506 77.6C59.9839 77.7667 59.8173 78.0167 59.6506 78.35C59.6173 78.3833 59.6006 78.4167 59.6006 78.45C59.6006 78.4833 59.5839 78.5167 59.5506 78.55L59.4006 78.8C59.3673 78.8333 59.3339 78.8833 59.3006 78.95C59.3006 78.9833 59.2839 79 59.2506 79C59.1173 79.2333 58.9506 79.45 58.7506 79.65C58.5839 79.7833 58.3839 79.95 58.1506 80.15C57.9506 80.3167 57.7339 80.4333 57.5006 80.5H57.2506C57.2173 80.6333 57.1673 80.7833 57.1006 80.95C57.0673 81.0833 57.0173 81.2167 56.9506 81.35C56.9173 81.3833 56.8839 81.4333 56.8506 81.5C56.8506 81.5667 56.8173 81.6333 56.7506 81.7C56.7173 81.7333 56.6839 81.7667 56.6506 81.8C56.6173 81.8333 56.6006 81.8833 56.6006 81.95C56.5673 82.3167 56.5339 82.8667 56.5006 83.6C56.5006 84.3333 56.4839 85.1 56.4506 85.9C56.4506 86.7333 56.4506 87.5167 56.4506 88.25C56.4506 88.9833 56.4339 89.5333 56.4006 89.9C56.4006 89.9333 56.3339 89.8833 56.2006 89.75C56.1673 89.65 56.1339 89.55 56.1006 89.45C56.1006 89.35 56.0673 89.25 56.0006 89.15L55.5006 86.9C55.3339 86.4 55.2506 85.7833 55.2506 85.05C55.2506 84.3167 55.2506 83.5833 55.2506 82.85C55.2839 82.15 55.2339 81.55 55.1006 81.05C55.1006 81.05 55.0839 81.05 55.0506 81.05C55.0506 81.0833 55.0506 81.1167 55.0506 81.15C55.0506 81.1833 55.0339 81.1833 55.0006 81.15C54.9673 81.1167 54.9339 81.1 54.9006 81.1C54.8339 81.0667 54.7673 81.0167 54.7006 80.95C54.6673 80.9167 54.6173 80.8833 54.5506 80.85C54.5173 80.8167 54.4673 80.7833 54.4006 80.75C54.2673 80.8833 54.1673 81.0167 54.1006 81.15C54.0339 81.2167 54.0006 81.2667 54.0006 81.3L53.7006 81.65C53.3339 82.1167 53.0506 82.6333 52.8506 83.2L52.5506 84.1C52.4173 84.5 52.2673 84.9167 52.1006 85.35C51.9339 85.8167 51.6839 86.2333 51.3506 86.6C51.1506 86.8 51.0673 86.8667 51.1006 86.8C51.1673 86.7667 51.2006 86.7333 51.2006 86.7L51.0006 86.9C50.8673 86.9667 50.8006 87.0167 50.8006 87.05C50.8006 87.1167 50.7173 87.1667 50.5506 87.2C50.5173 87.2 50.4506 87.1833 50.3506 87.15C50.2839 87.1167 50.2173 87.1167 50.1506 87.15C50.1173 87.15 50.0839 87.15 50.0506 87.15C50.0173 87.1833 49.9673 87.2 49.9006 87.2L49.5506 87.45C49.4839 87.4833 49.3839 87.55 49.2506 87.65C49.1506 87.75 49.0506 87.75 48.9506 87.65C48.9173 87.6167 48.8839 87.5667 48.8506 87.5C48.8506 87.4333 48.8173 87.3833 48.7506 87.35C48.7173 87.3167 48.6839 87.3167 48.6506 87.35C48.6173 87.4167 48.5839 87.4333 48.5506 87.4C48.5173 87.3667 48.4839 87.3333 48.4506 87.3C48.4173 87.2667 48.3839 87.2333 48.3506 87.2C48.2173 87.1333 48.0839 87.0333 47.9506 86.9C47.8173 86.7667 47.6839 86.65 47.5506 86.55C47.4173 86.4167 47.3006 86.3167 47.2006 86.25C47.1339 86.4167 47.1006 86.5833 47.1006 86.75C47.1006 86.95 47.0673 87.1333 47.0006 87.3C46.9673 87.4333 46.9173 87.55 46.8506 87.65C46.8173 87.75 46.8006 87.85 46.8006 87.95C46.7673 88.3167 46.7506 88.85 46.7506 89.55C46.7506 90.2833 46.7506 91.05 46.7506 91.85C46.7506 92.65 46.7339 93.4 46.7006 94.1C46.6673 94.8333 46.6173 95.3833 46.5506 95.75C46.5173 96.05 46.4839 96.1 46.4506 95.9C46.4506 95.7 46.4339 95.3667 46.4006 94.9C46.4006 94.4333 46.3839 93.95 46.3506 93.45C46.3506 92.9833 46.3506 92.6 46.3506 92.3C46.3173 91.8 46.2839 91.1667 46.2506 90.4C46.2506 89.6333 46.2339 88.8667 46.2006 88.1C46.2006 87.3667 46.1839 86.75 46.1506 86.25C46.0173 86.35 45.9006 86.4667 45.8006 86.6C45.6006 86.8333 45.4173 87.0667 45.2506 87.3C45.0839 87.5333 44.8673 87.7333 44.6006 87.9C44.5673 88.1667 44.5339 88.4333 44.5006 88.7C44.4673 88.9667 44.4339 89.2333 44.4006 89.5C44.3673 90 44.3006 90.4833 44.2006 90.95C44.1339 91.4167 44.0673 91.8833 44.0006 92.35C43.9673 92.55 43.9339 92.7333 43.9006 92.9C43.9006 93.1 43.8673 93.2833 43.8006 93.45C43.7673 93.5833 43.7339 93.7833 43.7006 94.05C43.6673 94.35 43.6339 94.4333 43.6006 94.3C43.5339 93.5333 43.5006 92.7 43.5006 91.8C43.5006 90.9333 43.4673 90.1333 43.4006 89.4C43.4006 89.3667 43.3673 89.35 43.3006 89.35C43.2339 89.35 43.2006 89.3667 43.2006 89.4C43.1339 90.1333 43.1006 90.9667 43.1006 91.9C43.1006 92.8333 43.0673 93.6833 43.0006 94.45C43.0006 94.5833 42.9673 94.5333 42.9006 94.3C42.8673 94.0667 42.8339 93.9 42.8006 93.8C42.7006 93.4333 42.6173 93.0167 42.5506 92.55C42.4839 92.0833 42.4173 91.7 42.3506 91.4C42.2839 90.8 42.2173 90.2 42.1506 89.6C42.1173 89.0333 42.0506 88.4667 41.9506 87.9L41.6506 87.6C41.5506 87.4333 41.4506 87.2667 41.3506 87.1C41.2839 86.9667 41.2173 86.8333 41.1506 86.7C40.8839 86.1 40.6339 85.5 40.4006 84.9C40.2006 84.3 39.9673 83.7167 39.7006 83.15L38.9506 81.6C38.9173 81.5333 38.9006 81.4833 38.9006 81.45C38.9006 81.4167 38.8839 81.3833 38.8506 81.35C38.7839 81.4833 38.7506 81.6333 38.7506 81.8C38.7839 82 38.7506 82.1833 38.6506 82.35C38.6173 82.3833 38.5839 82.3333 38.5506 82.2C38.5173 82.1 38.4839 82.0333 38.4506 82C38.4173 81.8 38.3673 81.65 38.3006 81.55C38.3006 81.6167 38.2673 81.6833 38.2006 81.75C38.1673 81.8167 38.1006 81.9 38.0006 82C37.9006 82.1 37.8006 82.2 37.7006 82.3C37.6339 82.4 37.5506 82.4833 37.4506 82.55C37.2839 82.7833 37.1506 83.05 37.0506 83.35C36.9839 83.6833 36.9173 83.9833 36.8506 84.25C36.8173 84.3833 36.7839 84.5167 36.7506 84.65C36.7506 84.7833 36.7173 84.9167 36.6506 85.05C36.6173 85.1833 36.5839 85.3833 36.5506 85.65C36.5173 85.9167 36.4839 85.9833 36.4506 85.85C36.0839 85.4833 35.9173 85.3333 35.9506 85.4C35.9839 85.5 36.0839 85.6667 36.2506 85.9C36.4173 86.1667 36.5173 86.3833 36.5506 86.55C36.5839 86.75 36.4173 86.7667 36.0506 86.6C35.7173 86.5 35.5506 86.2667 35.5506 85.9C35.5839 85.5333 35.6506 85.1167 35.7506 84.65C35.8839 84.1833 35.9173 83.7833 35.8506 83.45C35.8506 83.3833 35.8173 83.3167 35.7506 83.25C35.7173 83.1833 35.7006 83.1833 35.7006 83.25C35.6673 83.4167 35.6506 83.6667 35.6506 84C35.6506 84.3333 35.6506 84.6 35.6506 84.8C35.6506 85.0333 35.6006 85.0667 35.5006 84.9C35.3339 84.5333 35.2839 84.15 35.3506 83.75C35.4173 83.35 35.4173 82.9667 35.3506 82.6C35.3173 82.4 35.2339 82.2333 35.1006 82.1C35.0339 82.0667 34.9673 82.0167 34.9006 81.95C34.8339 81.8833 34.7673 81.8333 34.7006 81.8C34.6673 81.8 34.6339 81.8167 34.6006 81.85C34.6006 81.9167 34.5839 81.9667 34.5506 82C34.4506 82 34.4006 82.0167 34.4006 82.05C34.3673 82.3167 34.3673 82.6667 34.4006 83.1C34.4673 83.5667 34.5006 83.95 34.5006 84.25C34.5339 84.55 34.4339 84.6333 34.2006 84.5C33.8673 84.2333 33.7673 83.8333 33.9006 83.3C34.0673 82.7667 34.1173 82.2833 34.0506 81.85C34.0506 81.7833 34.0339 81.7 34.0006 81.6C33.9673 81.5 33.9173 81.4833 33.8506 81.55C33.7839 81.65 33.7673 81.8 33.8006 82C33.8339 82.2 33.8006 82.2833 33.7006 82.25C33.5673 82.1833 33.5173 82.0667 33.5506 81.9C33.6173 81.7333 33.6339 81.5833 33.6006 81.45L33.2506 80.95C33.1173 80.8833 33.0006 80.8167 32.9006 80.75C32.5339 80.4833 32.3506 80.1167 32.3506 79.65V70.25C31.7173 69.2167 31.2506 68.25 30.9506 67.35C30.6839 66.4167 30.6339 65.6667 30.8006 65.1C31.0006 64.5333 31.5173 64.25 32.3506 64.25V48.75C32.3506 48.55 32.3339 48.3333 32.3006 48.1C32.3006 47.8333 32.3173 47.5833 32.3506 47.35C32.3506 47.0167 32.4339 46.75 32.6006 46.55C32.7339 46.35 32.9173 46.2 33.1506 46.1C33.3506 46.0333 33.5173 46 33.6506 46C33.8173 45.9667 33.9839 45.9667 34.1506 46C34.3506 46 34.5339 46 34.7006 46H47.2006C47.7339 46 48.2673 46 48.8006 46C49.3339 46 49.8673 46.0333 50.4006 46.1C54.0673 46.4 57.1506 47.5 59.6506 49.4C59.8506 49.5333 60.0006 49.65 60.1006 49.75C60.2006 49.8167 60.2839 49.8833 60.3506 49.95C60.9506 50.45 61.5339 51.0667 62.1006 51.8C62.5006 52.2333 62.8339 52.7333 63.1006 53.3C63.7339 54.4667 64.2006 55.7833 64.5006 57.25C64.5006 57.2833 64.5006 57.3 64.5006 57.3C64.5339 57.3 64.5506 57.3167 64.5506 57.35C64.5839 57.4833 64.6173 57.6333 64.6506 57.8C64.6839 57.9333 64.7006 58.0833 64.7006 58.25C64.8006 58.6833 64.8506 59.15 64.8506 59.65C64.9173 61.2167 64.9173 62.6333 64.8506 63.9ZM45.0506 55.9L44.7506 55.6C44.3839 55.2333 44.2339 55.0667 44.3006 55.1C44.3673 55.1333 44.4839 55.25 44.6506 55.45C44.8506 55.65 44.9173 55.8167 44.8506 55.95V70.65C44.8506 73.0833 44.5673 74.8667 44.0006 76C43.4673 77.1333 42.7339 77.75 41.8006 77.85C40.9006 77.95 39.9173 77.7 38.8506 77.1C37.7839 76.4667 36.7339 75.6167 35.7006 74.55C34.6673 73.4833 33.7339 72.35 32.9006 71.15C32.1006 69.95 31.5006 68.8167 31.1006 67.75C30.7006 66.65 30.6006 65.7833 30.8006 65.15C31.0339 64.4833 31.6506 64.1833 32.6506 64.25C33.6506 64.2833 35.1339 64.8333 37.1006 65.9C39.1006 66.9333 41.6839 68.6167 44.8506 70.95L45.2506 71.25H47.3506C47.7839 71.25 48.2006 71.2333 48.6006 71.2C49.0339 71.1333 49.4673 71.0333 49.9006 70.9C50.1673 70.8 50.4173 70.65 50.6506 70.45C50.6839 70.45 50.7006 70.45 50.7006 70.45C50.7006 70.4167 50.7173 70.4 50.7506 70.4C50.8173 70.3333 50.8839 70.25 50.9506 70.15C51.0173 70.05 51.0839 69.95 51.1506 69.85C51.3506 69.5167 51.5006 69.1667 51.6006 68.8C51.7339 68.4 51.8339 68.0333 51.9006 67.7C51.9006 67.6667 51.9006 67.6333 51.9006 67.6C51.9339 67.5333 51.9506 67.4833 51.9506 67.45C52.0173 67.25 52.0506 67.05 52.0506 66.85C52.0839 66.6167 52.1173 66.4 52.1506 66.2C52.1506 65.8333 52.1506 65.4333 52.1506 65C52.1839 64.5333 52.2006 64.0667 52.2006 63.6V62.85C52.2006 62.5167 52.1839 62.2 52.1506 61.9C52.1506 61.5667 52.1506 61.2333 52.1506 60.9C52.1506 60.8 52.1339 60.6333 52.1006 60.4C52.1006 60.1333 52.1006 59.8833 52.1006 59.65C52.0673 59.2833 52.0006 58.95 51.9006 58.65C51.8339 58.3167 51.7173 58 51.5506 57.7C51.5506 57.7 51.5173 57.6333 51.4506 57.5C51.4173 57.4333 51.3506 57.35 51.2506 57.25C51.2506 57.2167 51.2173 57.1667 51.1506 57.1L50.8506 56.8C50.6173 56.6 50.3839 56.5 50.1506 56.5C49.9173 56.5 49.6673 56.5333 49.4006 56.6C49.1339 56.6333 48.8506 56.7 48.5506 56.8C48.2506 56.8667 47.9506 56.9167 47.6506 56.95C47.5173 56.9833 47.3673 57.0167 47.2006 57.05C47.0673 57.05 46.9339 57.0333 46.8006 57C46.5673 56.9333 46.3339 56.8333 46.1006 56.7C45.8673 56.5333 45.6506 56.3833 45.4506 56.25C45.2839 56.0833 45.1506 55.9667 45.0506 55.9ZM98.0123 56.75C97.979 56.8833 97.929 57 97.8623 57.1C97.829 57.2 97.779 57.3167 97.7123 57.45C97.679 57.4833 97.6623 57.5167 97.6623 57.55C97.6623 57.5833 97.6456 57.6167 97.6123 57.65L97.0123 58.95L95.8123 61.75C95.679 62.1833 95.529 62.6167 95.3623 63.05C95.1956 63.45 95.029 63.85 94.8623 64.25C94.5956 64.8833 94.3623 65.35 94.1623 65.65L93.8123 66.4C93.279 67.9 92.7456 69.3167 92.2123 70.65C91.7123 71.9833 91.2623 72.85 90.8623 73.25L90.7123 73.65C90.479 74.45 90.229 75.2 89.9623 75.9C89.729 76.5667 89.479 77.0667 89.2123 77.4C89.1456 77.5333 89.1123 77.6167 89.1123 77.65C88.979 78.0167 88.8456 78.3833 88.7123 78.75C88.579 79.0833 88.429 79.4167 88.2623 79.75C88.0623 80.2833 87.8623 80.8167 87.6623 81.35C87.4623 81.8833 87.2456 82.3667 87.0123 82.8C86.9456 82.9333 86.9123 83.0167 86.9123 83.05L86.6123 83.65C86.279 84.4833 85.9623 85.1833 85.6623 85.75C85.3623 86.35 85.129 86.7667 84.9623 87C84.829 87.2667 84.7123 87.55 84.6123 87.85C84.579 87.8833 84.5623 87.9167 84.5623 87.95C84.5623 87.9833 84.5456 88.0167 84.5123 88.05C84.4456 88.25 84.379 88.4 84.3123 88.5C84.279 88.6333 84.2456 88.75 84.2123 88.85C84.179 88.95 84.129 89.05 84.0623 89.15C83.9623 89.3833 83.829 89.6167 83.6623 89.85C83.4623 90.05 83.3123 90.1833 83.2123 90.25C83.1123 90.45 83.029 90.65 82.9623 90.85C82.929 91.0833 82.879 91.3 82.8123 91.5L82.2123 93.25C82.179 93.3167 82.1456 93.4333 82.1123 93.6C82.079 93.7667 82.0456 93.8167 82.0123 93.75C81.9456 93.35 81.9123 92.9333 81.9123 92.5C81.9123 92.0667 81.879 91.65 81.8123 91.25C81.479 91.45 81.1456 91.65 80.8123 91.85C80.5123 92.05 80.179 92.1833 79.8123 92.25C79.579 92.2833 79.379 92.2333 79.2123 92.1C79.079 91.9667 78.9456 91.8333 78.8123 91.7C78.6456 91.5333 78.5123 91.35 78.4123 91.15C78.4123 91.15 78.379 91.1 78.3123 91C78.2456 91 78.2123 91 78.2123 91C78.1456 91.2333 78.1123 91.4833 78.1123 91.75C78.1456 92.0167 78.1123 92.2833 78.0123 92.55C77.979 92.6167 77.9456 92.5667 77.9123 92.4C77.879 92.2667 77.8456 92.1667 77.8123 92.1L77.6623 91.1C77.5623 91.4 77.4123 91.6167 77.2123 91.75C77.1456 91.8167 77.079 91.85 77.0123 91.85C76.979 92.0167 76.9456 92.1833 76.9123 92.35C76.9123 92.55 76.879 92.7333 76.8123 92.9C76.779 92.9333 76.729 92.9 76.6623 92.8C76.629 92.7333 76.6123 92.6667 76.6123 92.6C76.579 92.4333 76.5456 92.2667 76.5123 92.1C76.5123 91.9333 76.479 91.7833 76.4123 91.65C76.3456 91.5833 76.2623 91.5 76.1623 91.4C76.0956 91.3333 76.029 91.25 75.9623 91.15L75.7123 90.9C75.7123 91.0333 75.679 91.1167 75.6123 91.15C75.6123 91.1833 75.479 91.0667 75.2123 90.8C75.2123 90.8333 75.1956 90.85 75.1623 90.85C75.1623 90.85 75.1623 90.8667 75.1623 90.9C75.129 91.4 75.1123 91.8833 75.1123 92.35C75.1123 92.85 75.079 93.35 75.0123 93.85C74.979 93.9833 74.9623 94.1167 74.9623 94.25C74.9623 94.4167 74.9123 94.55 74.8123 94.65C74.779 94.6833 74.729 94.65 74.6623 94.55C74.629 94.45 74.5956 94.3667 74.5623 94.3C74.529 94.0333 74.4956 93.7667 74.4623 93.5C74.429 93.2667 74.3956 93.0333 74.3623 92.8C74.329 92.5667 74.3456 92.2333 74.4123 91.8C74.479 91.3667 74.429 91.0167 74.2623 90.75C74.229 90.7167 74.1956 90.6833 74.1623 90.65C74.129 90.6167 74.0956 90.5833 74.0623 90.55C74.029 90.55 73.9956 90.5333 73.9623 90.5C73.929 90.5 73.879 90.5 73.8123 90.5C73.6123 90.4667 73.479 90.4167 73.4123 90.35C73.3123 90.2833 73.229 90.2 73.1623 90.1C73.0956 90.0333 73.029 89.9333 72.9623 89.8C72.9623 89.7667 72.9456 89.7333 72.9123 89.7C72.9123 89.6667 72.9123 89.6333 72.9123 89.6V89.3C72.9123 89.1667 72.929 89.0667 72.9623 89C72.9623 88.9 72.979 88.8333 73.0123 88.8C73.079 88.6 73.1456 88.4 73.2123 88.2C73.3123 88.0333 73.3956 87.8667 73.4623 87.7L73.5623 87.45C73.5956 87.3833 73.6123 87.3333 73.6123 87.3C73.6456 87.2667 73.679 87.2333 73.7123 87.2L74.6123 84.95C74.779 84.4833 74.9456 84.0333 75.1123 83.6C75.3123 83.1667 75.4956 82.7667 75.6623 82.4C75.729 82.2333 75.7956 82.0667 75.8623 81.9C75.9623 81.7333 76.0456 81.5833 76.1123 81.45L76.2123 81.15L76.7123 79.9C76.7123 79.8667 76.7123 79.85 76.7123 79.85C76.7456 79.85 76.7623 79.8333 76.7623 79.8L76.9623 79.35L76.8123 79C76.7456 78.8667 76.7123 78.8 76.7123 78.8C76.479 78.5333 76.1456 77.9167 75.7123 76.95C75.279 75.9833 74.8123 74.8667 74.3123 73.6C74.179 73.3333 74.0456 73.05 73.9123 72.75C73.779 72.45 73.629 72.1167 73.4623 71.75C73.229 71.3833 72.9956 70.85 72.7623 70.15C72.5623 69.45 72.3456 68.7167 72.1123 67.95L69.3123 61.35C69.2123 61.0833 69.1123 60.8333 69.0123 60.6C68.9123 60.3667 68.8123 60.1333 68.7123 59.9C68.2456 58.8333 67.8123 57.8167 67.4123 56.85C67.379 56.8167 67.3456 56.7167 67.3123 56.55C67.279 56.45 67.2623 56.3333 67.2623 56.2C67.2623 56.1333 67.279 56.0833 67.3123 56.05C67.3123 55.8833 67.3623 55.7333 67.4623 55.6C67.529 55.5 67.6123 55.4167 67.7123 55.35C67.9123 55.15 68.1456 55.0333 68.4123 55C68.679 54.9333 68.9623 54.9167 69.2623 54.95C69.5956 54.9833 69.879 55 70.1123 55H76.7123C76.8456 55 76.9956 55.0167 77.1623 55.05C77.329 55.05 77.429 55.05 77.4623 55.05L77.7623 55.2C77.929 55.2333 78.0623 55.3167 78.1623 55.45C78.429 55.7167 78.6123 56.0333 78.7123 56.4C78.8123 56.7667 78.8956 57.0833 78.9623 57.35C79.0956 57.65 79.2123 57.9667 79.3123 58.3C79.4456 58.6333 79.579 58.9833 79.7123 59.35C79.779 59.5167 79.8456 59.7167 79.9123 59.95C80.0123 60.15 80.0956 60.3667 80.1623 60.6L80.5623 61.75V61.8L80.7623 62.3C80.7623 62.3333 80.7956 62.4167 80.8623 62.55C81.029 63.05 81.1956 63.55 81.3623 64.05C81.5623 64.55 81.7623 65.05 81.9623 65.55L82.4123 66.85V66.95C82.479 67.0167 82.5123 67.1 82.5123 67.2C82.579 67.2333 82.5956 67.2667 82.5623 67.3C82.529 67.3333 82.579 67.3667 82.7123 67.4C82.7456 67.3667 82.7623 67.3333 82.7623 67.3L82.9123 67L83.0623 66.5C83.0956 66.4333 83.1123 66.3833 83.1123 66.35C83.1123 66.3167 83.129 66.2833 83.1623 66.25L83.3123 65.85V65.8L84.0623 63.8C84.129 63.6667 84.1623 63.5833 84.1623 63.55C84.329 63.0167 84.5123 62.5 84.7123 62C84.9123 61.5 85.0956 61.0333 85.2623 60.6C85.2956 60.5667 85.3123 60.5333 85.3123 60.5C85.3123 60.4667 85.329 60.4333 85.3623 60.4L85.6123 59.75C85.7123 59.4167 85.8123 59.1 85.9123 58.8C86.0456 58.5 86.1623 58.1833 86.2623 57.85L86.4123 57.5C86.4456 57.4 86.479 57.3 86.5123 57.2C86.5456 57.1 86.579 57 86.6123 56.9C86.7123 56.6333 86.829 56.3667 86.9623 56.1C87.0956 55.8 87.279 55.55 87.5123 55.35C87.879 55.0833 88.3623 54.95 88.9623 54.95C89.129 54.95 89.3123 54.9667 89.5123 55C89.7123 55 89.8956 55 90.0623 55H96.9623C97.229 55 97.429 55.05 97.5623 55.15C97.629 55.1833 97.679 55.2167 97.7123 55.25C97.7456 55.2833 97.779 55.3167 97.8123 55.35C98.0123 55.55 98.1123 55.7833 98.1123 56.05V56.4C98.1123 56.4 98.0956 56.4167 98.0623 56.45C98.0623 56.45 98.0623 56.4667 98.0623 56.5V56.55L98.0123 56.75Z" fill="black"/>
<path d="M89.665 91.7275L86.9375 89L89.665 86.2725" stroke="black" stroke-linecap="round" stroke-linejoin="round"/>
<path d="M90.2533 91.7311L91.7571 86.269" stroke="black" stroke-linecap="round" stroke-linejoin="round"/>
<path d="M92.335 86.2725L95.0625 89L92.335 91.7275" stroke="black" stroke-linecap="round" stroke-linejoin="round"/>
<path d="M97.9375 90.9582L99.8447 88.5478L101.57 91.8885L102.965 86.1116L103.847 87.8132L105.127 86.392L106.062 88.1432" stroke="black" stroke-width="0.8" stroke-linecap="round" stroke-linejoin="round"/>
</g>
<defs>
<linearGradient id="paint0_linear_1_2" x1="27.3894" y1="7.29777e-07" x2="100.611" y2="128" gradientUnits="userSpaceOnUse">
<stop offset="0.115" stop-color="#1ED7B5"/>
<stop offset="0.44" stop-color="#87E8AE"/>
<stop offset="1" stop-color="#F0F9A7"/>
</linearGradient>
<clipPath id="clip0_1_2">
<rect width="128" height="128" fill="white"/>
</clipPath>
</defs>
</svg>
